<svg width="84" height="84" viewBox="0 0 84 84" fill="none" xmlns="http://www.w3.org/2000/svg">
<path d="M13.7876 17.5L7.76881 11.4811C6.7437 10.456 6.74373 8.79395 7.76888 7.76883C8.794 6.74372 10.4561 6.74372 11.4812 7.76887L76.2304 72.5193C77.2555 73.5445 77.2555 75.2066 76.2304 76.2318C75.2052 77.2569 73.5431 77.2569 72.5179 76.2318L64.4942 68.2077L64.4837 68.3172C63.9989 73.2442 59.8556 77 54.9049 77H29.0953C24.1444 77 20.0011 73.2442 19.5165 68.3172L15.2066 24.5H12.25C10.317 24.5 8.75 22.933 8.75 21C8.75 19.067 10.317 17.5 12.25 17.5H13.7876ZM52.5 56.2132L47.25 50.9632V59.5L47.2738 59.8563C47.4477 61.1373 48.5461 62.125 49.875 62.125C51.204 62.125 52.3023 61.1373 52.4762 59.8563L52.5 59.5V56.2132ZM36.75 40.4628L31.5 35.2128V59.5L31.524 59.8563C31.6978 61.1373 32.7961 62.125 34.125 62.125C35.454 62.125 36.5523 61.1373 36.7262 59.8563L36.75 59.5V40.4628Z" fill="#EE9244"/>
<path d="M52.5 35V41.3637L65.8241 54.6882L68.7935 24.5H71.75L72.1581 24.4764C73.899 24.2743 75.25 22.7949 75.25 21C75.25 19.067 73.683 17.5 71.75 17.5H54.25C54.25 10.7345 48.7655 5.25 42 5.25C35.2345 5.25 29.75 10.7345 29.75 17.5H28.6367L47.25 36.1137V35L47.2738 34.6438C47.4477 33.3625 48.546 32.375 49.875 32.375C51.2039 32.375 52.3022 33.3625 52.4762 34.6438L52.5 35ZM42 12.25C44.8994 12.25 47.25 14.6005 47.25 17.5H36.75C36.75 14.6005 39.1006 12.25 42 12.25Z" fill="#EE9244"/>
</svg>
