<svg width="1440" height="480" viewBox="0 0 1440 480" fill="none" xmlns="http://www.w3.org/2000/svg">
<mask id="path-1-inside-1_517_138" fill="white">
<path d="M332.275 399.505L566.757 366.551L599.711 601.032L365.229 633.987L332.275 399.505Z"/>
<path d="M365.229 633.987L599.711 601.032L632.665 835.514L398.183 868.468L365.229 633.987Z"/>
<path d="M398.183 868.468L632.665 835.514L665.619 1070L431.138 1102.95L398.183 868.468Z"/>
<path d="M431.138 1102.95L665.619 1070L698.574 1304.48L464.092 1337.43L431.138 1102.95Z"/>
<path d="M464.092 1337.43L698.574 1304.48L731.528 1538.96L497.046 1571.91L464.092 1337.43Z"/>
<path d="M97.793 432.46L332.275 399.505L365.229 633.987L130.747 666.941L97.793 432.46Z"/>
<path d="M130.747 666.941L365.229 633.987L398.183 868.468L163.701 901.422L130.747 666.941Z"/>
<path d="M163.701 901.422L398.183 868.468L431.138 1102.95L196.656 1135.9L163.701 901.422Z"/>
<path d="M196.656 1135.9L431.138 1102.95L464.092 1337.43L229.61 1370.39L196.656 1135.9Z"/>
<path d="M229.61 1370.39L464.092 1337.43L497.046 1571.91L262.564 1604.87L229.61 1370.39Z"/>
<path d="M-169.643 230.932L64.8388 197.978L97.793 432.46L-136.689 465.414L-169.643 230.932Z"/>
<path d="M64.8388 197.978L299.321 165.024L332.275 399.505L97.793 432.46L64.8388 197.978Z"/>
<path d="M299.321 165.024L533.803 132.07L566.757 366.551L332.275 399.505L299.321 165.024Z"/>
<path d="M533.803 132.07L768.284 99.1153L801.239 333.597L566.757 366.551L533.803 132.07Z"/>
<path d="M768.284 99.1153L1002.77 66.161L1035.72 300.642L801.239 333.597L768.284 99.1153Z"/>
<path d="M1002.77 66.161L1237.25 33.2068L1270.2 267.688L1035.72 300.642L1002.77 66.161Z"/>
<path d="M-136.689 465.414L97.793 432.46L130.747 666.941L-103.735 699.895L-136.689 465.414Z"/>
<path d="M-103.735 699.895L130.747 666.941L163.701 901.422L-70.7805 934.377L-103.735 699.895Z"/>
<path d="M-70.7805 934.377L163.701 901.422L196.656 1135.9L-37.8263 1168.86L-70.7805 934.377Z"/>
<path d="M-37.8263 1168.86L196.656 1135.9L229.61 1370.39L-4.87205 1403.34L-37.8263 1168.86Z"/>
<path d="M-4.87205 1403.34L229.61 1370.39L262.564 1604.87L28.0822 1637.82L-4.87205 1403.34Z"/>
<path d="M-338.217 732.85L-103.735 699.895L-70.7805 934.377L-305.262 967.331L-338.217 732.85Z"/>
<path d="M-305.262 967.331L-70.7805 934.377L-37.8263 1168.86L-272.308 1201.81L-305.262 967.331Z"/>
<path d="M-239.354 1436.29L-4.87205 1403.34L28.0822 1637.82L-206.4 1670.78L-239.354 1436.29Z"/>
<path d="M566.757 366.551L801.239 333.597L834.193 568.078L599.711 601.032L566.757 366.551Z"/>
<path d="M599.711 601.032L834.193 568.078L867.147 802.559L632.665 835.514L599.711 601.032Z"/>
<path d="M632.665 835.514L867.147 802.559L900.101 1037.04L665.619 1070L632.665 835.514Z"/>
<path d="M665.619 1070L900.101 1037.04L933.056 1271.52L698.574 1304.48L665.619 1070Z"/>
<path d="M698.574 1304.48L933.056 1271.52L966.01 1506L731.528 1538.96L698.574 1304.48Z"/>
<path d="M801.239 333.597L1035.72 300.642L1068.67 535.124L834.193 568.078L801.239 333.597Z"/>
<path d="M834.193 568.078L1068.67 535.124L1101.63 769.605L867.147 802.559L834.193 568.078Z"/>
<path d="M867.147 802.559L1101.63 769.605L1134.58 1004.09L900.101 1037.04L867.147 802.559Z"/>
<path d="M900.101 1037.04L1134.58 1004.09L1167.54 1238.57L933.056 1271.52L900.101 1037.04Z"/>
<path d="M933.056 1271.52L1167.54 1238.57L1200.49 1473.05L966.01 1506L933.056 1271.52Z"/>
<path d="M1035.72 300.642L1270.2 267.688L1303.16 502.17L1068.67 535.124L1035.72 300.642Z"/>
<path d="M1068.67 535.124L1303.16 502.17L1336.11 736.651L1101.63 769.605L1068.67 535.124Z"/>
<path d="M1101.63 769.605L1336.11 736.651L1369.07 971.132L1134.58 1004.09L1101.63 769.605Z"/>
<path d="M1134.58 1004.09L1369.07 971.132L1402.02 1205.61L1167.54 1238.57L1134.58 1004.09Z"/>
<path d="M1167.54 1238.57L1402.02 1205.61L1434.97 1440.1L1200.49 1473.05L1167.54 1238.57Z"/>
<path d="M1200.49 1473.05L1434.97 1440.1L1467.93 1674.58L1233.45 1707.53L1200.49 1473.05Z"/>
<path d="M966.01 1506L1200.49 1473.05L1233.45 1707.53L998.964 1740.49L966.01 1506Z"/>
<path d="M731.528 1538.96L966.01 1506L998.964 1740.49L764.482 1773.44L731.528 1538.96Z"/>
<path d="M497.046 1571.91L731.528 1538.96L764.482 1773.44L530 1806.39L497.046 1571.91Z"/>
<path d="M262.564 1604.87L497.046 1571.91L530 1806.39L295.518 1839.35L262.564 1604.87Z"/>
<path d="M28.0822 1637.82L262.564 1604.87L295.518 1839.35L61.0364 1872.3L28.0822 1637.82Z"/>
<path d="M1237.25 33.2068L1471.73 0.252469L1504.68 234.734L1270.2 267.688L1237.25 33.2068Z"/>
<path d="M1270.2 267.688L1504.68 234.734L1537.64 469.215L1303.16 502.17L1270.2 267.688Z"/>
<path d="M1303.16 502.17L1537.64 469.215L1570.59 703.697L1336.11 736.651L1303.16 502.17Z"/>
<path d="M1336.11 736.651L1570.59 703.697L1603.55 938.178L1369.07 971.132L1336.11 736.651Z"/>
<path d="M1369.07 971.132L1603.55 938.178L1636.5 1172.66L1402.02 1205.61L1369.07 971.132Z"/>
<path d="M1402.02 1205.61L1636.5 1172.66L1669.46 1407.14L1434.97 1440.1L1402.02 1205.61Z"/>
<path d="M-404.125 263.887L-169.643 230.932L-136.689 465.414L-371.171 498.368L-404.125 263.887Z"/>
<path d="M-371.171 498.368L-136.689 465.414L-103.735 699.895L-338.217 732.85L-371.171 498.368Z"/>
<path d="M-272.308 1201.81L-37.8263 1168.86L-4.87205 1403.34L-239.354 1436.29L-272.308 1201.81Z"/>
<path d="M-206.4 1670.78L28.0822 1637.82L61.0364 1872.3L-173.446 1905.26L-206.4 1670.78Z"/>
<path d="M1434.97 1440.1L1669.46 1407.14L1702.41 1641.62L1467.93 1674.58L1434.97 1440.1Z"/>
</mask>
<path d="M332.344 400L566.826 367.046L566.687 366.056L332.205 399.01L332.344 400ZM566.262 366.621L599.216 601.102L600.206 600.963L567.252 366.481L566.262 366.621ZM599.641 600.537L365.16 633.492L365.299 634.482L599.781 601.528L599.641 600.537ZM365.724 633.917L332.77 399.436L331.78 399.575L364.734 634.056L365.724 633.917ZM599.216 601.102L632.17 835.583L633.16 835.444L600.206 600.963L599.216 601.102ZM632.596 835.019L398.114 867.973L398.253 868.963L632.735 836.009L632.596 835.019ZM398.678 868.398L365.724 633.917L364.734 634.056L397.688 868.538L398.678 868.398ZM632.17 835.583L665.124 1070.06L666.115 1069.93L633.16 835.444L632.17 835.583ZM665.55 1069.5L431.068 1102.45L431.207 1103.44L665.689 1070.49L665.55 1069.5ZM431.633 1102.88L398.678 868.398L397.688 868.538L430.642 1103.02L431.633 1102.88ZM665.124 1070.06L698.078 1304.55L699.069 1304.41L666.115 1069.93L665.124 1070.06ZM698.504 1303.98L464.022 1336.94L464.161 1337.93L698.643 1304.97L698.504 1303.98ZM464.587 1337.36L431.633 1102.88L430.642 1103.02L463.597 1337.5L464.587 1337.36ZM698.078 1304.55L731.033 1539.03L732.023 1538.89L699.069 1304.41L698.078 1304.55ZM731.458 1538.46L496.976 1571.42L497.116 1572.41L731.597 1539.45L731.458 1538.46ZM497.541 1571.84L464.587 1337.36L463.597 1337.5L496.551 1571.98L497.541 1571.84ZM97.8626 432.955L332.344 400L332.205 399.01L97.7234 431.964L97.8626 432.955ZM365.16 633.492L130.678 666.446L130.817 667.436L365.299 634.482L365.16 633.492ZM131.242 666.871L98.2881 432.39L97.2979 432.529L130.252 667.011L131.242 666.871ZM398.114 867.973L163.632 900.927L163.771 901.917L398.253 868.963L398.114 867.973ZM164.197 901.353L131.242 666.871L130.252 667.011L163.206 901.492L164.197 901.353ZM431.068 1102.45L196.586 1135.41L196.725 1136.4L431.207 1103.44L431.068 1102.45ZM197.151 1135.83L164.197 901.353L163.206 901.492L196.16 1135.97L197.151 1135.83ZM464.022 1336.94L229.54 1369.89L229.679 1370.88L464.161 1337.93L464.022 1336.94ZM230.105 1370.32L197.151 1135.83L196.16 1135.97L229.115 1370.45L230.105 1370.32ZM496.976 1571.42L262.494 1604.37L262.634 1605.36L497.116 1572.41L496.976 1571.42ZM263.059 1604.8L230.105 1370.32L229.115 1370.45L262.069 1604.94L263.059 1604.8ZM64.3437 198.048L97.2979 432.529L98.2881 432.39L65.3339 197.909L64.3437 198.048ZM97.7234 431.964L-136.758 464.919L-136.619 465.909L97.8626 432.955L97.7234 431.964ZM-136.194 465.344L-169.148 230.863L-170.138 231.002L-137.184 465.483L-136.194 465.344ZM298.826 165.093L331.78 399.575L332.77 399.436L299.816 164.954L298.826 165.093ZM533.307 132.139L566.262 366.621L567.252 366.481L534.298 132L533.307 132.139ZM767.789 99.1849L800.744 333.666L801.734 333.527L768.78 99.0457L767.789 99.1849ZM801.169 333.102L566.687 366.056L566.826 367.046L801.308 334.092L801.169 333.102ZM1002.27 66.2306L1035.23 300.712L1036.22 300.573L1003.26 66.0914L1002.27 66.2306ZM1035.65 300.147L801.169 333.102L801.308 334.092L1035.79 301.138L1035.65 300.147ZM1236.75 33.2763L1269.71 267.758L1270.7 267.619L1237.74 33.1372L1236.75 33.2763ZM1270.13 267.193L1035.65 300.147L1035.79 301.138L1270.27 268.183L1270.13 267.193ZM130.678 666.446L-103.804 699.4L-103.665 700.39L130.817 667.436L130.678 666.446ZM-103.24 699.826L-136.194 465.344L-137.184 465.483L-104.23 699.965L-103.24 699.826ZM163.632 900.927L-70.8501 933.881L-70.7109 934.872L163.771 901.917L163.632 900.927ZM-70.2853 934.307L-103.24 699.826L-104.23 699.965L-71.2756 934.446L-70.2853 934.307ZM196.586 1135.41L-37.8958 1168.36L-37.7567 1169.35L196.725 1136.4L196.586 1135.41ZM-37.3311 1168.79L-70.2853 934.307L-71.2756 934.446L-38.3214 1168.93L-37.3311 1168.79ZM229.54 1369.89L-4.94164 1402.84L-4.80247 1403.83L229.679 1370.88L229.54 1369.89ZM-4.37692 1403.27L-37.3311 1168.79L-38.3214 1168.93L-5.36719 1403.41L-4.37692 1403.27ZM262.494 1604.37L28.0126 1637.33L28.1517 1638.32L262.634 1605.36L262.494 1604.37ZM28.5773 1637.75L-4.37692 1403.27L-5.36719 1403.41L27.587 1637.89L28.5773 1637.75ZM-338.147 733.345L-103.665 700.39L-103.804 699.4L-338.286 732.354L-338.147 733.345ZM-70.8501 933.881L-305.332 966.836L-305.193 967.826L-70.7109 934.872L-70.8501 933.881ZM-37.8958 1168.36L-272.378 1201.32L-272.239 1202.31L-37.7567 1169.35L-37.8958 1168.36ZM-239.284 1436.79L-4.80247 1403.83L-4.94164 1402.84L-239.424 1435.8L-239.284 1436.79ZM28.0126 1637.33L-206.469 1670.28L-206.33 1671.27L28.1517 1638.32L28.0126 1637.33ZM800.744 333.666L833.698 568.148L834.688 568.009L801.734 333.527L800.744 333.666ZM834.123 567.583L599.641 600.537L599.781 601.528L834.262 568.573L834.123 567.583ZM833.698 568.148L866.652 802.629L867.642 802.49L834.688 568.009L833.698 568.148ZM867.078 802.064L632.596 835.019L632.735 836.009L867.217 803.055L867.078 802.064ZM866.652 802.629L899.606 1037.11L900.596 1036.97L867.642 802.49L866.652 802.629ZM900.032 1036.55L665.55 1069.5L665.689 1070.49L900.171 1037.54L900.032 1036.55ZM899.606 1037.11L932.56 1271.59L933.551 1271.45L900.596 1036.97L899.606 1037.11ZM932.986 1271.03L698.504 1303.98L698.643 1304.97L933.125 1272.02L932.986 1271.03ZM932.56 1271.59L965.515 1506.07L966.505 1505.93L933.551 1271.45L932.56 1271.59ZM965.94 1505.51L731.458 1538.46L731.597 1539.45L966.079 1506.5L965.94 1505.51ZM1035.23 300.712L1068.18 535.193L1069.17 535.054L1036.22 300.573L1035.23 300.712ZM1068.61 534.629L834.123 567.583L834.262 568.573L1068.74 535.619L1068.61 534.629ZM1068.18 535.193L1101.13 769.675L1102.12 769.536L1069.17 535.054L1068.18 535.193ZM1101.56 769.11L867.078 802.064L867.217 803.055L1101.7 770.1L1101.56 769.11ZM1101.13 769.675L1134.09 1004.16L1135.08 1004.02L1102.12 769.536L1101.13 769.675ZM1134.51 1003.59L900.032 1036.55L900.171 1037.54L1134.65 1004.58L1134.51 1003.59ZM1134.09 1004.16L1167.04 1238.64L1168.03 1238.5L1135.08 1004.02L1134.09 1004.16ZM1167.47 1238.07L932.986 1271.03L933.125 1272.02L1167.61 1239.06L1167.47 1238.07ZM1167.04 1238.64L1200 1473.12L1200.99 1472.98L1168.03 1238.5L1167.04 1238.64ZM1200.42 1472.55L965.94 1505.51L966.079 1506.5L1200.56 1473.54L1200.42 1472.55ZM1269.71 267.758L1302.66 502.239L1303.65 502.1L1270.7 267.619L1269.71 267.758ZM1303.09 501.674L1068.61 534.629L1068.74 535.619L1303.23 502.665L1303.09 501.674ZM1302.66 502.239L1335.62 736.721L1336.61 736.581L1303.65 502.1L1302.66 502.239ZM1336.04 736.156L1101.56 769.11L1101.7 770.1L1336.18 737.146L1336.04 736.156ZM1335.62 736.721L1368.57 971.202L1369.56 971.063L1336.61 736.581L1335.62 736.721ZM1369 970.637L1134.51 1003.59L1134.65 1004.58L1369.13 971.627L1369 970.637ZM1368.57 971.202L1401.52 1205.68L1402.51 1205.54L1369.56 971.063L1368.57 971.202ZM1401.95 1205.12L1167.47 1238.07L1167.61 1239.06L1402.09 1206.11L1401.95 1205.12ZM1401.52 1205.68L1434.48 1440.16L1435.47 1440.03L1402.51 1205.54L1401.52 1205.68ZM1434.9 1439.6L1200.42 1472.55L1200.56 1473.54L1435.04 1440.59L1434.9 1439.6ZM1434.48 1440.16L1467.43 1674.65L1468.42 1674.51L1435.47 1440.03L1434.48 1440.16ZM1233.94 1707.46L1200.99 1472.98L1200 1473.12L1232.95 1707.6L1233.94 1707.46ZM999.459 1740.42L966.505 1505.93L965.515 1506.07L998.469 1740.55L999.459 1740.42ZM764.977 1773.37L732.023 1538.89L731.033 1539.03L763.987 1773.51L764.977 1773.37ZM530.495 1806.32L497.541 1571.84L496.551 1571.98L529.505 1806.46L530.495 1806.32ZM296.013 1839.28L263.059 1604.8L262.069 1604.94L295.023 1839.42L296.013 1839.28ZM61.5315 1872.23L28.5773 1637.75L27.587 1637.89L60.5412 1872.37L61.5315 1872.23ZM1504.61 234.239L1270.13 267.193L1270.27 268.183L1504.75 235.229L1504.61 234.239ZM1537.57 468.72L1303.09 501.674L1303.23 502.665L1537.71 469.71L1537.57 468.72ZM1570.52 703.201L1336.04 736.156L1336.18 737.146L1570.66 704.192L1570.52 703.201ZM1603.48 937.683L1369 970.637L1369.13 971.627L1603.62 938.673L1603.48 937.683ZM1636.43 1172.16L1401.95 1205.12L1402.09 1206.11L1636.57 1173.15L1636.43 1172.16ZM1669.39 1406.65L1434.9 1439.6L1435.04 1440.59L1669.53 1407.64L1669.39 1406.65ZM-136.758 464.919L-371.24 497.873L-371.101 498.863L-136.619 465.909L-136.758 464.919ZM1471.73 0.252469L1472.72 0.113296L1472.58 -0.876972L1471.59 -0.737799L1471.73 0.252469ZM-404.125 263.887L-404.264 262.896L-405.254 263.036L-405.115 264.026L-404.125 263.887ZM-173.446 1905.26L-174.436 1905.4L-174.297 1906.39L-173.306 1906.25L-173.446 1905.26ZM1702.41 1641.62L1702.55 1642.61L1703.54 1642.47L1703.4 1641.48L1702.41 1641.62ZM-169.504 231.923L64.978 198.968L64.6996 196.988L-169.782 229.942L-169.504 231.923ZM64.978 198.968L299.46 166.014L299.181 164.034L64.6996 196.988L64.978 198.968ZM299.46 166.014L533.942 133.06L533.663 131.079L299.181 164.034L299.46 166.014ZM533.942 133.06L768.424 100.106L768.145 98.125L533.663 131.079L533.942 133.06ZM768.424 100.106L1002.91 67.1513L1002.63 65.1708L768.145 98.125L768.424 100.106ZM1002.91 67.1513L1237.39 34.197L1237.11 32.2165L1002.63 65.1708L1002.91 67.1513ZM-304.272 967.192L-337.226 732.71L-339.207 732.989L-306.253 967.47L-304.272 967.192ZM-271.318 1201.67L-304.272 967.192L-306.253 967.47L-273.298 1201.95L-271.318 1201.67ZM-205.409 1670.64L-238.364 1436.15L-240.344 1436.43L-207.39 1670.91L-205.409 1670.64ZM1467.79 1673.59L1233.31 1706.54L1233.58 1708.52L1468.07 1675.57L1467.79 1673.59ZM1233.31 1706.54L998.825 1739.49L999.103 1741.48L1233.58 1708.52L1233.31 1706.54ZM998.825 1739.49L764.343 1772.45L764.621 1774.43L999.103 1741.48L998.825 1739.49ZM764.343 1772.45L529.861 1805.4L530.139 1807.38L764.621 1774.43L764.343 1772.45ZM529.861 1805.4L295.379 1838.36L295.657 1840.34L530.139 1807.38L529.861 1805.4ZM295.379 1838.36L60.8972 1871.31L61.1755 1873.29L295.657 1840.34L295.379 1838.36ZM1237.39 34.197L1471.87 1.24274L1471.59 -0.737799L1237.11 32.2165L1237.39 34.197ZM1470.74 0.391642L1503.69 234.873L1505.67 234.595L1472.72 0.113296L1470.74 0.391642ZM1503.69 234.873L1536.65 469.354L1538.63 469.076L1505.67 234.595L1503.69 234.873ZM1536.65 469.354L1569.6 703.836L1571.58 703.557L1538.63 469.076L1536.65 469.354ZM1569.6 703.836L1602.56 938.317L1604.54 938.039L1571.58 703.557L1569.6 703.836ZM1602.56 938.317L1635.51 1172.8L1637.49 1172.52L1604.54 938.039L1602.56 938.317ZM1635.51 1172.8L1668.47 1407.28L1670.45 1407L1637.49 1172.52L1635.51 1172.8ZM-403.986 264.877L-169.504 231.923L-169.782 229.942L-404.264 262.896L-403.986 264.877ZM-370.181 498.229L-403.135 263.748L-405.115 264.026L-372.161 498.507L-370.181 498.229ZM-337.226 732.71L-370.181 498.229L-372.161 498.507L-339.207 732.989L-337.226 732.71ZM-238.364 1436.15L-271.318 1201.67L-273.298 1201.95L-240.344 1436.43L-238.364 1436.15ZM60.8972 1871.31L-173.585 1904.27L-173.306 1906.25L61.1755 1873.29L60.8972 1871.31ZM-172.455 1905.12L-205.409 1670.64L-207.39 1670.91L-174.436 1905.4L-172.455 1905.12ZM1668.47 1407.28L1701.42 1641.76L1703.4 1641.48L1670.45 1407L1668.47 1407.28ZM1702.27 1640.63L1467.79 1673.59L1468.07 1675.57L1702.55 1642.61L1702.27 1640.63Z" fill="#5B5757" fill-opacity="0.5" mask="url(#path-1-inside-1_517_138)"/>
</svg>
