<svg width="1440" height="1131" viewBox="0 0 1440 1131" fill="none" xmlns="http://www.w3.org/2000/svg">
<mask id="path-1-inside-1_517_135" fill="white">
<path d="M797.951 44.42L950.384 128.915L865.889 281.349L713.455 196.854L797.951 44.42Z"/>
<path d="M713.455 196.854L865.889 281.349L781.394 433.783L628.96 349.287L713.455 196.854Z"/>
<path d="M628.96 349.287L781.394 433.783L696.898 586.217L544.464 501.721L628.96 349.287Z"/>
<path d="M544.464 501.721L696.898 586.217L612.403 738.65L459.969 654.155L544.464 501.721Z"/>
<path d="M459.969 654.155L612.403 738.65L527.907 891.084L375.474 806.589L459.969 654.155Z"/>
<path d="M645.517 -40.0754L797.951 44.42L713.455 196.854L561.021 112.358L645.517 -40.0754Z"/>
<path d="M561.021 112.358L713.455 196.854L628.96 349.287L476.526 264.792L561.021 112.358Z"/>
<path d="M476.526 264.792L628.96 349.287L544.464 501.721L392.031 417.226L476.526 264.792Z"/>
<path d="M392.031 417.226L544.464 501.721L459.969 654.155L307.535 569.659L392.031 417.226Z"/>
<path d="M307.535 569.659L459.969 654.155L375.474 806.589L223.04 722.093L307.535 569.659Z"/>
<path d="M577.578 -277.005L730.012 -192.509L645.517 -40.0754L493.083 -124.571L577.578 -277.005Z"/>
<path d="M730.012 -192.509L882.446 -108.014L797.951 44.42L645.517 -40.0754L730.012 -192.509Z"/>
<path d="M882.446 -108.014L1034.88 -23.5182L950.384 128.915L797.951 44.42L882.446 -108.014Z"/>
<path d="M1034.88 -23.5182L1187.31 60.9772L1102.82 213.411L950.384 128.915L1034.88 -23.5182Z"/>
<path d="M1187.31 60.9772L1339.75 145.473L1255.25 297.906L1102.82 213.411L1187.31 60.9772Z"/>
<path d="M1339.75 145.473L1492.18 229.968L1407.69 382.402L1255.25 297.906L1339.75 145.473Z"/>
<path d="M493.083 -124.571L645.517 -40.0754L561.021 112.358L408.588 27.8628L493.083 -124.571Z"/>
<path d="M408.588 27.8628L561.021 112.358L476.526 264.792L324.092 180.297L408.588 27.8628Z"/>
<path d="M324.092 180.297L476.526 264.792L392.031 417.226L239.597 332.73L324.092 180.297Z"/>
<path d="M239.597 332.73L392.031 417.226L307.535 569.659L155.101 485.164L239.597 332.73Z"/>
<path d="M155.101 485.164L307.535 569.659L223.04 722.093L70.606 637.598L155.101 485.164Z"/>
<path d="M256.154 -56.6326L408.588 27.8628L324.092 180.297L171.658 95.8011L256.154 -56.6326Z"/>
<path d="M171.658 95.8011L324.092 180.297L239.597 332.73L87.163 248.235L171.658 95.8011Z"/>
<path d="M2.66762 400.668L155.101 485.164L70.606 637.598L-81.8278 553.102L2.66762 400.668Z"/>
<path d="M950.384 128.915L1102.82 213.411L1018.32 365.845L865.889 281.349L950.384 128.915Z"/>
<path d="M865.889 281.349L1018.32 365.845L933.827 518.278L781.394 433.783L865.889 281.349Z"/>
<path d="M781.394 433.783L933.827 518.278L849.332 670.712L696.898 586.217L781.394 433.783Z"/>
<path d="M696.898 586.217L849.332 670.712L764.837 823.146L612.403 738.65L696.898 586.217Z"/>
<path d="M612.403 738.65L764.837 823.146L680.341 975.579L527.907 891.084L612.403 738.65Z"/>
<path d="M1102.82 213.411L1255.25 297.906L1170.76 450.34L1018.32 365.845L1102.82 213.411Z"/>
<path d="M1018.32 365.845L1170.76 450.34L1086.26 602.774L933.827 518.278L1018.32 365.845Z"/>
<path d="M933.827 518.278L1086.26 602.774L1001.77 755.207L849.332 670.712L933.827 518.278Z"/>
<path d="M849.332 670.712L1001.77 755.207L917.27 907.641L764.837 823.146L849.332 670.712Z"/>
<path d="M764.837 823.146L917.27 907.641L832.775 1060.07L680.341 975.579L764.837 823.146Z"/>
<path d="M1255.25 297.906L1407.69 382.402L1323.19 534.835L1170.76 450.34L1255.25 297.906Z"/>
<path d="M1170.76 450.34L1323.19 534.835L1238.7 687.269L1086.26 602.774L1170.76 450.34Z"/>
<path d="M1086.26 602.774L1238.7 687.269L1154.2 839.703L1001.77 755.207L1086.26 602.774Z"/>
<path d="M1001.77 755.207L1154.2 839.703L1069.7 992.137L917.27 907.641L1001.77 755.207Z"/>
<path d="M917.27 907.641L1069.7 992.137L985.209 1144.57L832.775 1060.07L917.27 907.641Z"/>
<path d="M832.775 1060.07L985.209 1144.57L900.713 1297L748.28 1212.51L832.775 1060.07Z"/>
<path d="M680.341 975.579L832.775 1060.07L748.28 1212.51L595.846 1128.01L680.341 975.579Z"/>
<path d="M527.907 891.084L680.341 975.579L595.846 1128.01L443.412 1043.52L527.907 891.084Z"/>
<path d="M375.474 806.589L527.907 891.084L443.412 1043.52L290.978 959.022L375.474 806.589Z"/>
<path d="M223.04 722.093L375.474 806.589L290.978 959.022L138.544 874.527L223.04 722.093Z"/>
<path d="M70.606 637.598L223.04 722.093L138.544 874.527L-13.8893 790.031L70.606 637.598Z"/>
<path d="M1492.18 229.968L1644.61 314.464L1560.12 466.897L1407.69 382.402L1492.18 229.968Z"/>
<path d="M1407.69 382.402L1560.12 466.897L1475.62 619.331L1323.19 534.835L1407.69 382.402Z"/>
<path d="M1323.19 534.835L1475.62 619.331L1391.13 771.765L1238.7 687.269L1323.19 534.835Z"/>
<path d="M1238.7 687.269L1391.13 771.765L1306.63 924.198L1154.2 839.703L1238.7 687.269Z"/>
<path d="M1154.2 839.703L1306.63 924.198L1222.14 1076.63L1069.7 992.137L1154.2 839.703Z"/>
<path d="M1069.7 992.137L1222.14 1076.63L1137.64 1229.07L985.209 1144.57L1069.7 992.137Z"/>
<path d="M425.145 -361.5L577.578 -277.005L493.083 -124.571L340.649 -209.066L425.145 -361.5Z"/>
<path d="M340.649 -209.066L493.083 -124.571L408.588 27.8628L256.154 -56.6326L340.649 -209.066Z"/>
<path d="M87.163 248.235L239.597 332.73L155.101 485.164L2.66762 400.668L87.163 248.235Z"/>
<path d="M-81.8278 553.102L70.606 637.598L-13.8893 790.031L-166.323 705.536L-81.8278 553.102Z"/>
<path d="M985.209 1144.57L1137.64 1229.07L1053.15 1381.5L900.713 1297L985.209 1144.57Z"/>
</mask>
<path d="M797.708 44.8573L950.142 129.353L950.627 128.478L798.193 43.9827L797.708 44.8573ZM949.947 128.673L865.452 281.107L866.326 281.592L950.822 129.158L949.947 128.673ZM866.131 280.912L713.698 196.416L713.213 197.291L865.647 281.786L866.131 280.912ZM713.892 197.096L798.388 44.6624L797.513 44.1776L713.018 196.611L713.892 197.096ZM865.452 281.107L780.956 433.54L781.831 434.025L866.326 281.592L865.452 281.107ZM781.636 433.346L629.202 348.85L628.717 349.725L781.151 434.22L781.636 433.346ZM629.397 349.53L713.892 197.096L713.018 196.611L628.522 349.045L629.397 349.53ZM780.956 433.54L696.461 585.974L697.336 586.459L781.831 434.025L780.956 433.54ZM697.141 585.779L544.707 501.284L544.222 502.158L696.656 586.654L697.141 585.779ZM544.902 501.964L629.397 349.53L628.522 349.045L544.027 501.479L544.902 501.964ZM696.461 585.974L611.966 738.408L612.84 738.893L697.336 586.459L696.461 585.974ZM612.645 738.213L460.211 653.717L459.727 654.592L612.16 739.088L612.645 738.213ZM460.406 654.397L544.902 501.964L544.027 501.479L459.532 653.912L460.406 654.397ZM611.966 738.408L527.47 890.842L528.345 891.326L612.84 738.893L611.966 738.408ZM528.15 890.647L375.716 806.151L375.231 807.026L527.665 891.521L528.15 890.647ZM375.911 806.831L460.406 654.397L459.532 653.912L375.036 806.346L375.911 806.831ZM645.274 -39.6381L797.708 44.8573L798.193 43.9827L645.759 -40.5127L645.274 -39.6381ZM713.698 196.416L561.264 111.921L560.779 112.796L713.213 197.291L713.698 196.416ZM561.459 112.601L645.954 -39.833L645.079 -40.3178L560.584 112.116L561.459 112.601ZM629.202 348.85L476.768 264.355L476.284 265.229L628.717 349.725L629.202 348.85ZM476.963 265.034L561.459 112.601L560.584 112.116L476.089 264.55L476.963 265.034ZM544.707 501.284L392.273 416.788L391.788 417.663L544.222 502.158L544.707 501.284ZM392.468 417.468L476.963 265.034L476.089 264.55L391.593 416.983L392.468 417.468ZM460.211 653.717L307.778 569.222L307.293 570.097L459.727 654.592L460.211 653.717ZM307.973 569.902L392.468 417.468L391.593 416.983L307.098 569.417L307.973 569.902ZM375.716 806.151L223.282 721.656L222.797 722.53L375.231 807.026L375.716 806.151ZM223.477 722.335L307.973 569.902L307.098 569.417L222.603 721.851L223.477 722.335ZM729.575 -192.752L645.079 -40.3178L645.954 -39.833L730.449 -192.267L729.575 -192.752ZM645.759 -40.5127L493.325 -125.008L492.841 -124.134L645.274 -39.6381L645.759 -40.5127ZM493.52 -124.328L578.016 -276.762L577.141 -277.247L492.646 -124.813L493.52 -124.328ZM882.009 -108.256L797.513 44.1776L798.388 44.6624L882.883 -107.771L882.009 -108.256ZM1034.44 -23.7606L949.947 128.673L950.822 129.158L1035.32 -23.2758L1034.44 -23.7606ZM1186.88 60.7348L1102.38 213.168L1103.26 213.653L1187.75 61.2196L1186.88 60.7348ZM1103.06 212.974L950.627 128.478L950.142 129.353L1102.58 213.848L1103.06 212.974ZM1339.31 145.23L1254.81 297.664L1255.69 298.149L1340.18 145.715L1339.31 145.23ZM1255.49 297.469L1103.06 212.974L1102.58 213.848L1255.01 298.344L1255.49 297.469ZM1491.74 229.726L1407.25 382.159L1408.12 382.644L1492.62 230.21L1491.74 229.726ZM1407.93 381.964L1255.49 297.469L1255.01 298.344L1407.44 382.839L1407.93 381.964ZM561.264 111.921L408.83 27.4255L408.345 28.3001L560.779 112.796L561.264 111.921ZM409.025 28.1052L493.52 -124.328L492.646 -124.813L408.15 27.6204L409.025 28.1052ZM476.768 264.355L324.335 179.859L323.85 180.734L476.284 265.229L476.768 264.355ZM324.529 180.539L409.025 28.1052L408.15 27.6204L323.655 180.054L324.529 180.539ZM392.273 416.788L239.839 332.293L239.354 333.168L391.788 417.663L392.273 416.788ZM240.034 332.973L324.529 180.539L323.655 180.054L239.159 332.488L240.034 332.973ZM307.778 569.222L155.344 484.727L154.859 485.601L307.293 570.097L307.778 569.222ZM155.539 485.406L240.034 332.973L239.159 332.488L154.664 484.922L155.539 485.406ZM223.282 721.656L70.8485 637.16L70.3636 638.035L222.797 722.53L223.282 721.656ZM71.0434 637.84L155.539 485.406L154.664 484.922L70.1687 637.355L71.0434 637.84ZM255.911 -56.1953L408.345 28.3001L408.83 27.4255L256.396 -57.0699L255.911 -56.1953ZM324.335 179.859L171.901 95.3638L171.416 96.2384L323.85 180.734L324.335 179.859ZM239.839 332.293L87.4054 247.797L86.9206 248.672L239.354 333.168L239.839 332.293ZM2.42522 401.106L154.859 485.601L155.344 484.727L2.91003 400.231L2.42522 401.106ZM70.8485 637.16L-81.5854 552.665L-82.0702 553.54L70.3636 638.035L70.8485 637.16ZM1102.38 213.168L1017.89 365.602L1018.76 366.087L1103.26 213.653L1102.38 213.168ZM1018.57 365.407L866.131 280.912L865.647 281.786L1018.08 366.282L1018.57 365.407ZM1017.89 365.602L933.39 518.036L934.265 518.521L1018.76 366.087L1017.89 365.602ZM934.07 517.841L781.636 433.346L781.151 434.22L933.585 518.716L934.07 517.841ZM933.39 518.036L848.895 670.47L849.769 670.954L934.265 518.521L933.39 518.036ZM849.574 670.275L697.141 585.779L696.656 586.654L849.09 671.149L849.574 670.275ZM848.895 670.47L764.399 822.903L765.274 823.388L849.769 670.954L848.895 670.47ZM765.079 822.708L612.645 738.213L612.16 739.088L764.594 823.583L765.079 822.708ZM764.399 822.903L679.904 975.337L680.779 975.822L765.274 823.388L764.399 822.903ZM680.584 975.142L528.15 890.647L527.665 891.521L680.099 976.017L680.584 975.142ZM1254.81 297.664L1170.32 450.098L1171.19 450.582L1255.69 298.149L1254.81 297.664ZM1171 449.903L1018.57 365.407L1018.08 366.282L1170.51 450.777L1171 449.903ZM1170.32 450.098L1085.82 602.531L1086.7 603.016L1171.19 450.582L1170.32 450.098ZM1086.5 602.336L934.07 517.841L933.585 518.716L1086.02 603.211L1086.5 602.336ZM1085.82 602.531L1001.33 754.965L1002.2 755.45L1086.7 603.016L1085.82 602.531ZM1002.01 754.77L849.574 670.275L849.09 671.149L1001.52 755.645L1002.01 754.77ZM1001.33 754.965L916.833 907.399L917.708 907.884L1002.2 755.45L1001.33 754.965ZM917.513 907.204L765.079 822.708L764.594 823.583L917.028 908.078L917.513 907.204ZM916.833 907.399L832.338 1059.83L833.212 1060.32L917.708 907.884L916.833 907.399ZM833.017 1059.64L680.584 975.142L680.099 976.017L832.533 1060.51L833.017 1059.64ZM1407.25 382.159L1322.75 534.593L1323.63 535.078L1408.12 382.644L1407.25 382.159ZM1323.43 534.398L1171 449.903L1170.51 450.777L1322.95 535.273L1323.43 534.398ZM1322.75 534.593L1238.26 687.027L1239.13 687.512L1323.63 535.078L1322.75 534.593ZM1238.94 686.832L1086.5 602.336L1086.02 603.211L1238.45 687.706L1238.94 686.832ZM1238.26 687.027L1153.76 839.46L1154.64 839.945L1239.13 687.512L1238.26 687.027ZM1154.44 839.266L1002.01 754.77L1001.52 755.645L1153.96 840.14L1154.44 839.266ZM1153.76 839.46L1069.27 991.894L1070.14 992.379L1154.64 839.945L1153.76 839.46ZM1069.95 991.699L917.513 907.204L917.028 908.078L1069.46 992.574L1069.95 991.699ZM1069.27 991.894L984.772 1144.33L985.646 1144.81L1070.14 992.379L1069.27 991.894ZM985.451 1144.13L833.017 1059.64L832.533 1060.51L984.966 1145.01L985.451 1144.13ZM984.772 1144.33L900.276 1296.76L901.151 1297.25L985.646 1144.81L984.772 1144.33ZM748.717 1212.75L833.212 1060.32L832.338 1059.83L747.842 1212.27L748.717 1212.75ZM596.283 1128.26L680.779 975.822L679.904 975.337L595.409 1127.77L596.283 1128.26ZM443.849 1043.76L528.345 891.326L527.47 890.842L442.975 1043.28L443.849 1043.76ZM291.416 959.265L375.911 806.831L375.036 806.346L290.541 958.78L291.416 959.265ZM138.982 874.769L223.477 722.335L222.603 721.851L138.107 874.284L138.982 874.769ZM-13.452 790.274L71.0434 637.84L70.1687 637.355L-14.3266 789.789L-13.452 790.274ZM1560.36 466.46L1407.93 381.964L1407.44 382.839L1559.88 467.335L1560.36 466.46ZM1475.87 618.894L1323.43 534.398L1322.95 535.273L1475.38 619.768L1475.87 618.894ZM1391.37 771.327L1238.94 686.832L1238.45 687.706L1390.89 772.202L1391.37 771.327ZM1306.88 923.761L1154.44 839.266L1153.96 840.14L1306.39 924.636L1306.88 923.761ZM1222.38 1076.19L1069.95 991.699L1069.46 992.574L1221.9 1077.07L1222.38 1076.19ZM1137.89 1228.63L985.451 1144.13L984.966 1145.01L1137.4 1229.5L1137.89 1228.63ZM493.325 -125.008L340.892 -209.504L340.407 -208.629L492.841 -124.134L493.325 -125.008ZM1644.61 314.464L1645.49 314.948L1645.97 314.074L1645.1 313.589L1644.61 314.464ZM425.145 -361.5L425.629 -362.375L424.755 -362.859L424.27 -361.985L425.145 -361.5ZM-166.323 705.536L-167.198 705.051L-167.683 705.926L-166.808 706.411L-166.323 705.536ZM1053.15 1381.5L1052.66 1382.37L1053.54 1382.86L1054.02 1381.98L1053.15 1381.5ZM577.094 -276.13L729.527 -191.635L730.497 -193.384L578.063 -277.879L577.094 -276.13ZM729.527 -191.635L881.961 -107.139L882.931 -108.888L730.497 -193.384L729.527 -191.635ZM881.961 -107.139L1034.39 -22.6436L1035.36 -24.3929L882.931 -108.888L881.961 -107.139ZM1034.39 -22.6436L1186.83 61.8518L1187.8 60.1026L1035.36 -24.3929L1034.39 -22.6436ZM1186.83 61.8518L1339.26 146.347L1340.23 144.598L1187.8 60.1026L1186.83 61.8518ZM1339.26 146.347L1491.7 230.843L1492.67 229.093L1340.23 144.598L1339.26 146.347ZM172.533 96.2859L257.028 -56.1478L255.279 -57.1174L170.784 95.3163L172.533 96.2859ZM88.0376 248.72L172.533 96.2859L170.784 95.3163L86.2884 247.75L88.0376 248.72ZM-80.9531 553.587L3.54224 401.153L1.793 400.184L-82.7024 552.617L-80.9531 553.587ZM901.198 1296.13L748.764 1211.63L747.795 1213.38L900.229 1297.88L901.198 1296.13ZM748.764 1211.63L596.331 1127.14L595.361 1128.89L747.795 1213.38L748.764 1211.63ZM596.331 1127.14L443.897 1042.64L442.927 1044.39L595.361 1128.89L596.331 1127.14ZM443.897 1042.64L291.463 958.148L290.493 959.897L442.927 1044.39L443.897 1042.64ZM291.463 958.148L139.029 873.652L138.06 875.401L290.493 959.897L291.463 958.148ZM139.029 873.652L-13.4045 789.157L-14.3741 790.906L138.06 875.401L139.029 873.652ZM1491.7 230.843L1644.13 315.338L1645.1 313.589L1492.67 229.093L1491.7 230.843ZM1643.74 313.979L1559.24 466.412L1560.99 467.382L1645.49 314.948L1643.74 313.979ZM1559.24 466.412L1474.75 618.846L1476.5 619.816L1560.99 467.382L1559.24 466.412ZM1474.75 618.846L1390.25 771.28L1392 772.249L1476.5 619.816L1474.75 618.846ZM1390.25 771.28L1305.76 923.713L1307.51 924.683L1392 772.249L1390.25 771.28ZM1305.76 923.713L1221.26 1076.15L1223.01 1077.12L1307.51 924.683L1305.76 923.713ZM1221.26 1076.15L1136.77 1228.58L1138.52 1229.55L1223.01 1077.12L1221.26 1076.15ZM424.66 -360.625L577.094 -276.13L578.063 -277.879L425.629 -362.375L424.66 -360.625ZM341.524 -208.581L426.019 -361.015L424.27 -361.985L339.775 -209.551L341.524 -208.581ZM257.028 -56.1478L341.524 -208.581L339.775 -209.551L255.279 -57.1174L257.028 -56.1478ZM3.54224 401.153L88.0376 248.72L86.2884 247.75L1.793 400.184L3.54224 401.153ZM-13.4045 789.157L-165.838 704.661L-166.808 706.411L-14.3741 790.906L-13.4045 789.157ZM-165.449 706.021L-80.9531 553.587L-82.7024 552.617L-167.198 705.051L-165.449 706.021ZM1136.77 1228.58L1052.27 1381.01L1054.02 1381.98L1138.52 1229.55L1136.77 1228.58ZM1053.63 1380.62L901.198 1296.13L900.229 1297.88L1052.66 1382.37L1053.63 1380.62Z" fill="#5B5757" fill-opacity="0.3" mask="url(#path-1-inside-1_517_135)"/>
</svg>
